# xmcd
#
# Track frame offsets: 
#        150
#        16397
#        30364
#        41422
#        53066
#        63143
#        75350
#        87538
#        95765
#        104035
#        114907
#        126287
#        136863
#        149076
#        160000
#        174297
#        188491
#        200345
#        208614
#        221424
#
# Disc length: 3128 seconds
#
# Revision: 0
# Processed by: cddbd v1.5.2PL0 Copyright (c) Steve Scherf et al.
# Submitted via: ExactAudioCopy v1.3
#
DISCID=0b0c3614
DTITLE=Various Artist - Rhythm and Blues Party [Disc 03]
DYEAR=2017
DGENRE=R&B
TTITLE0=Nina Simone - My Baby Just Cares For Me
TTITLE1=Etta James - I Just Want To Make Love To You
TTITLE2=Screamin' Jay Hawkins - I Put A Spell On You
TTITLE3=Kid Thomas - Wolf Pack
TTITLE4=Howlin' Wolf - I've Been Abused
TTITLE5=Little Willie John - Fever
TTITLE6=Little Richard - Slippin' And Slidin'
TTITLE7=Charles Sheffield - It's Your Voodoo Working
TTITLE8=LaVern Baker - Voodoo Voodoo
TTITLE9=Lee Dorsey - Ya Ya
TTITLE10=Huey 'Piano' Smith and The Clowns - Don't You Just Know It
TTITLE11=Richie Barrett - Some Other Guy
TTITLE12=Sam Cooke - Chain Gang
TTITLE13=Wilbert Harrison - Kansas City
TTITLE14=Bo Diddley - I Can Tell
TTITLE15=Aretha Franklin - Won't Be Long
TTITLE16=Freddie King - San-Ho-Zay
TTITLE17=Eddie Bo - Walk That Walk
TTITLE18=James Brown - Think
TTITLE19=Amos Milburn - Chicken Shack Boogie
EXTD=
EXTT0=
EXTT1=
EXTT2=
EXTT3=
EXTT4=
EXTT5=
EXTT6=
EXTT7=
EXTT8=
EXTT9=
EXTT10=
EXTT11=
EXTT12=
EXTT13=
EXTT14=
EXTT15=
EXTT16=
EXTT17=
EXTT18=
EXTT19=
PLAYORDER=
